# xmcd CD database file
#
# Track frame offsets:
#	150
#	11089
#	26129
#	40443
#	55204
#	69351
#	83000
#	101758
#	120042
#	138151
#	151221
#	167804
#	179241
#	199102
#	214197
#	232947
#	251157
#	263879
#	277838
#
# Disc length: 3923 seconds
#
# Revision: 0
# Processed by: cddbd v1.4PL0 Copyright (c) Steve Scherf et al.
# Submitted via: CDex 1.50
#
DISCID=070f5113
DTITLE=Walt Koken - Finger Lakes Ramble
DYEAR=1998
DGENRE=Old-Time
TTITLE0=Finger Lakes Ramble
TTITLE1=Turkey Trottin'
TTITLE2=The Valentine
TTITLE3=Banjo Sprite
TTITLE4=Jimmy Brown, The Newsboy
TTITLE5=Money Musk
TTITLE6=White Deer
TTITLE7=Whiskey
TTITLE8=Billy In The Lowground
TTITLE9=Money Train Blues
TTITLE10=The Old Man At The Mill
TTITLE11=Rag-a-Muffin
TTITLE12=June Apple
TTITLE13=Doctor Jazz
TTITLE14=Salt River
TTITLE15=The Cabin On The Hill
TTITLE16=Laughing Water
TTITLE17=Gray Eagle
TTITLE18=Ground Hog
EXTD=YEAR: 1998
EXTT0=
EXTT1=
EXTT2=
EXTT3=
EXTT4=
EXTT5=
EXTT6=
EXTT7=
EXTT8=
EXTT9=
EXTT10=
EXTT11=
EXTT12=
EXTT13=
EXTT14=
EXTT15=
EXTT16=
EXTT17=
EXTT18=
PLAYORDER=
